<svg width="11" height="9" viewBox="0 0 11 9" fill="none" xmlns="http://www.w3.org/2000/svg">
<path d="M0.621055 1V8H0.321055V1H0.621055ZM4.73105 1L1.37105 4.34L5.05105 8H4.62106L0.941055 4.34L4.30105 1H4.73105ZM5.84348 2.73C5.84348 2.08333 6.00681 1.61667 6.33348 1.33C6.66014 1.04333 7.19014 0.9 7.92348 0.9C8.43681 0.9 8.85014 1.03333 9.16348 1.3C9.47681 1.56667 9.70348 1.97333 9.84348 2.52L8.91348 3.22H8.42348L9.50348 2.41C9.36348 1.96333 9.16014 1.65 8.89348 1.47C8.63348 1.29 8.31014 1.2 7.92348 1.2C7.65681 1.2 7.43014 1.21667 7.24348 1.25C7.06348 1.28333 6.88014 1.35 6.69348 1.45C6.51348 1.54333 6.37681 1.69667 6.28348 1.91C6.19014 2.12333 6.14348 2.39667 6.14348 2.73C6.14348 3.02333 6.27681 3.28333 6.54348 3.51C6.81681 3.73667 7.14681 3.93 7.53348 4.09C7.92014 4.25 8.30681 4.41333 8.69348 4.58C9.08681 4.74667 9.41681 4.96 9.68348 5.22C9.95681 5.48 10.0935 5.78 10.0935 6.12C10.0935 6.78667 9.92681 7.28333 9.59348 7.61C9.26681 7.93667 8.70348 8.1 7.90348 8.1C7.25014 8.1 6.73681 7.97 6.36348 7.71C5.99014 7.44333 5.73348 7.03333 5.59348 6.48L5.87348 6.36C6.00681 6.9 6.23348 7.27667 6.55348 7.49C6.88014 7.69667 7.33014 7.8 7.90348 7.8C8.54348 7.8 9.01681 7.67667 9.32348 7.43C9.63681 7.18333 9.79348 6.74667 9.79348 6.12C9.79348 5.82667 9.65681 5.56667 9.38348 5.34C9.11681 5.11333 8.78681 4.92 8.39348 4.76C8.00681 4.6 7.62014 4.43667 7.23348 4.27C6.84681 4.10333 6.51681 3.89 6.24348 3.63C5.97681 3.37 5.84348 3.07 5.84348 2.73Z" fill="black"/>
</svg>
