<svg width="82" height="10" viewBox="0 0 82 10" fill="none" xmlns="http://www.w3.org/2000/svg">
<path d="M0.14 9V2.04H0.5V9H0.14ZM4.58 9L0.884 5.328L4.196 2.04H4.712L1.4 5.328L5.096 9H4.58ZM6.31578 2.04H6.67578V9H6.31578V2.04ZM10.7885 1.896C11.7805 1.896 12.4845 2.116 12.9005 2.556L12.6605 2.82C12.2765 2.444 11.6685 2.256 10.8365 2.256C9.5885 2.256 8.9645 2.752 8.9645 3.744C8.9645 4.128 9.1165 4.436 9.4205 4.668C9.7245 4.892 10.0925 5.064 10.5245 5.184C10.9645 5.304 11.4005 5.432 11.8325 5.568C12.2725 5.696 12.6445 5.908 12.9485 6.204C13.2525 6.492 13.4045 6.872 13.4045 7.344C13.4045 7.896 13.1765 8.336 12.7205 8.664C12.2645 8.992 11.6045 9.156 10.7405 9.156C10.3165 9.156 9.8965 9.1 9.4805 8.988C9.0725 8.876 8.7685 8.712 8.5685 8.496L8.8085 8.232C9.2165 8.608 9.8445 8.796 10.6925 8.796C11.4685 8.796 12.0525 8.652 12.4445 8.364C12.8445 8.076 13.0445 7.74 13.0445 7.356C13.0445 6.956 12.8925 6.632 12.5885 6.384C12.2845 6.136 11.9125 5.952 11.4725 5.832C11.0405 5.704 10.6045 5.576 10.1645 5.448C9.7325 5.312 9.3645 5.104 9.0605 4.824C8.7565 4.544 8.6045 4.176 8.6045 3.72C8.6045 3.104 8.8085 2.648 9.2165 2.352C9.6325 2.048 10.1565 1.896 10.7885 1.896ZM19.4717 9H19.1117V5.52H15.5117V9H15.1517V2.04H15.5117V5.16H19.1117V2.04H19.4717V9ZM22.3854 8.64H26.2974L23.8374 2.844L21.2214 9H20.8374L23.8374 1.92L26.8374 9H22.3854V8.64ZM28.2064 9V2.04H28.5664L32.4784 8.34V2.04H32.8384V9H32.4784L28.5664 2.688V9H28.2064ZM34.8685 3.168C34.9565 3.048 35.0605 2.8 35.1805 2.424C35.3085 2.048 35.3725 1.672 35.3725 1.296H35.0245V0.599999H35.8165C35.8165 1.808 35.6005 2.728 35.1685 3.36L34.8685 3.168ZM39.6049 1.896C40.5969 1.896 41.3009 2.116 41.7169 2.556L41.4769 2.82C41.0929 2.444 40.4849 2.256 39.6529 2.256C38.4049 2.256 37.7809 2.752 37.7809 3.744C37.7809 4.128 37.9329 4.436 38.2369 4.668C38.5409 4.892 38.9089 5.064 39.3409 5.184C39.7809 5.304 40.2169 5.432 40.6489 5.568C41.0889 5.696 41.4609 5.908 41.7649 6.204C42.0689 6.492 42.2209 6.872 42.2209 7.344C42.2209 7.896 41.9929 8.336 41.5369 8.664C41.0809 8.992 40.4209 9.156 39.5569 9.156C39.1329 9.156 38.7129 9.1 38.2969 8.988C37.8889 8.876 37.5849 8.712 37.3849 8.496L37.6249 8.232C38.0329 8.608 38.6609 8.796 39.5089 8.796C40.2849 8.796 40.8689 8.652 41.2609 8.364C41.6609 8.076 41.8609 7.74 41.8609 7.356C41.8609 6.956 41.7089 6.632 41.4049 6.384C41.1009 6.136 40.7289 5.952 40.2889 5.832C39.8569 5.704 39.4209 5.576 38.9809 5.448C38.5489 5.312 38.1809 5.104 37.8769 4.824C37.5729 4.544 37.4209 4.176 37.4209 3.72C37.4209 3.104 37.6249 2.648 38.0329 2.352C38.4489 2.048 38.9729 1.896 39.6049 1.896ZM49.3432 1.896C50.3352 1.896 51.0392 2.116 51.4552 2.556L51.2152 2.82C50.8312 2.444 50.2232 2.256 49.3912 2.256C48.1432 2.256 47.5192 2.752 47.5192 3.744C47.5192 4.128 47.6712 4.436 47.9752 4.668C48.2792 4.892 48.6472 5.064 49.0792 5.184C49.5192 5.304 49.9552 5.432 50.3872 5.568C50.8272 5.696 51.1992 5.908 51.5032 6.204C51.8072 6.492 51.9592 6.872 51.9592 7.344C51.9592 7.896 51.7312 8.336 51.2752 8.664C50.8192 8.992 50.1592 9.156 49.2952 9.156C48.8712 9.156 48.4512 9.1 48.0352 8.988C47.6272 8.876 47.3232 8.712 47.1232 8.496L47.3632 8.232C47.7712 8.608 48.3992 8.796 49.2472 8.796C50.0232 8.796 50.6072 8.652 50.9992 8.364C51.3992 8.076 51.5992 7.74 51.5992 7.356C51.5992 6.956 51.4472 6.632 51.1432 6.384C50.8392 6.136 50.4672 5.952 50.0272 5.832C49.5952 5.704 49.1592 5.576 48.7192 5.448C48.2872 5.312 47.9192 5.104 47.6152 4.824C47.3112 4.544 47.1592 4.176 47.1592 3.72C47.1592 3.104 47.3632 2.648 47.7712 2.352C48.1872 2.048 48.7112 1.896 49.3432 1.896ZM58.2064 2.04V2.4H55.6864V9H55.3264V2.4H52.8064V2.04H58.2064ZM59.8292 2.04V5.52C59.8292 6.712 60.0172 7.552 60.3932 8.04C60.7772 8.52 61.3012 8.76 61.9652 8.76C62.6292 8.76 63.1492 8.52 63.5252 8.04C63.9092 7.552 64.1012 6.712 64.1012 5.52V2.04H64.4612V5.52C64.4612 7.92 63.6292 9.12 61.9652 9.12C60.3012 9.12 59.4692 7.92 59.4692 5.52V2.04H59.8292ZM67.5325 9H66.6205V2.04H67.5325C68.7165 2.04 69.6605 2.352 70.3645 2.976C71.0685 3.6 71.4205 4.448 71.4205 5.52C71.4205 6.592 71.0685 7.44 70.3645 8.064C69.6605 8.688 68.7165 9 67.5325 9ZM67.5325 8.64C68.6125 8.64 69.4685 8.364 70.1005 7.812C70.7405 7.26 71.0605 6.496 71.0605 5.52C71.0605 4.544 70.7405 3.78 70.1005 3.228C69.4685 2.676 68.6125 2.4 67.5325 2.4H66.9805V8.64H67.5325ZM73.2533 2.04H73.6133V9H73.2533V2.04ZM79.394 2.412C79.122 2.324 78.786 2.28 78.386 2.28C77.986 2.28 77.65 2.324 77.378 2.412C77.106 2.492 76.854 2.648 76.622 2.88C76.398 3.104 76.23 3.436 76.118 3.876C76.006 4.308 75.95 4.856 75.95 5.52C75.95 6.184 76.006 6.736 76.118 7.176C76.23 7.608 76.398 7.94 76.622 8.172C76.854 8.396 77.106 8.552 77.378 8.64C77.65 8.72 77.986 8.76 78.386 8.76C78.786 8.76 79.122 8.72 79.394 8.64C79.666 8.552 79.914 8.396 80.138 8.172C80.37 7.94 80.542 7.608 80.654 7.176C80.766 6.736 80.822 6.184 80.822 5.52C80.822 4.856 80.766 4.308 80.654 3.876C80.542 3.436 80.37 3.104 80.138 2.88C79.914 2.648 79.666 2.492 79.394 2.412ZM80.534 8.268C80.102 8.836 79.386 9.12 78.386 9.12C77.386 9.12 76.67 8.836 76.238 8.268C75.806 7.7 75.59 6.784 75.59 5.52C75.59 4.256 75.806 3.34 76.238 2.772C76.67 2.204 77.386 1.92 78.386 1.92C79.386 1.92 80.102 2.204 80.534 2.772C80.966 3.34 81.182 4.256 81.182 5.52C81.182 6.784 80.966 7.7 80.534 8.268Z" fill="black"/>
</svg>
